<svg width="76" height="66" fill="none" xmlns="http://www.w3.org/2000/svg"><path d="M17.305 55.435h35.87M34.333 40.477l15.522-9.345m-40.16 6.756l6.015 6.015M1 35.714l6.015 6.015m8.754-6.286l9.457 9.073a7.945 7.945 0 004.588 2.171 7.87 7.87 0 004.945-1.066l37.98-22.617-4.666-5.86a7.991 7.991 0 00-4.803-2.886 7.865 7.865 0 00-5.482 1.01l-11.138 6.71-15.052-5.14-4.14 1.824c-.309.136-.58.35-.788.621a2.104 2.104 0 00-.315 1.948c.112.327.302.618.552.85l7.701 7.093-7.024 4.112L20.56 30.2l-4.214 1.85a2.014 2.014 0 00-.783.614 2.106 2.106 0 00-.328 1.929c.106.324.29.616.534.85v0z" stroke="#1C1F35" stroke-width="2" stroke-linecap="round" stroke-linejoin="round"/><path d="M68.935 18.478c-6.03 4.736-11.982 5.331-16.304 0l3.396-2.207a9.65 9.65 0 0112.908 2.207z" fill="#FFD550" stroke="#1C1F35" stroke-width="2"/></svg>