<svg width="20" height="20" fill="none" xmlns="http://www.w3.org/2000/svg"><path d="M18.442.291H2.235C1.35.291.576.928.576 1.803v16.242c0 .88.774 1.664 1.66 1.664h16.2c.891 0 1.558-.789 1.558-1.664V1.803C20 .928 19.327.291 18.442.291zM6.595 16.477H3.814v-8.65h2.781v8.65zM5.301 6.513h-.02c-.89 0-1.467-.663-1.467-1.493 0-.844.592-1.492 1.502-1.492s1.467.643 1.487 1.492c0 .83-.577 1.493-1.502 1.493zm11.461 9.964H13.98v-4.73c0-1.132-.404-1.906-1.41-1.906-.77 0-1.225.52-1.427 1.027-.076.182-.097.43-.097.683v4.926H8.265v-8.65h2.781v1.204c.405-.576 1.038-1.406 2.51-1.406 1.825 0 3.207 1.204 3.207 3.8v5.052z" fill="#fff"/></svg>