<svg width="218" height="37" fill="none" xmlns="http://www.w3.org/2000/svg"><g filter="url(#filter0_d_1_4592)"><path d="M48.72 28c-.22 0-.4-.07-.54-.21a.731.731 0 01-.21-.54V11.17h-5.46c-.2 0-.37-.07-.51-.21a.694.694 0 01-.21-.51v-2.7c0-.22.07-.4.21-.54.14-.14.31-.21.51-.21h15.72c.22 0 .4.07.54.21.14.14.21.32.21.54v2.7c0 .2-.07.37-.21.51-.14.14-.32.21-.54.21H52.8v16.08c0 .22-.07.4-.21.54-.14.14-.32.21-.54.21h-3.33zm11.75 0c-.2 0-.37-.07-.51-.21a.731.731 0 01-.21-.54v-14.1c0-.2.07-.37.21-.51.14-.16.31-.24.51-.24h2.94c.2 0 .37.08.51.24.16.14.24.31.24.51v1.2c.5-.62 1.11-1.1 1.83-1.44.74-.34 1.59-.51 2.55-.51h1.29c.2 0 .37.07.51.21.14.14.21.32.21.54v2.58c0 .22-.07.4-.21.54-.14.14-.31.21-.51.21h-2.64c-.88 0-1.57.25-2.07.75-.5.48-.75 1.17-.75 2.07v7.95c0 .22-.07.4-.21.54-.14.14-.32.21-.54.21h-3.15zm16.643.3c-1.06 0-2.01-.2-2.85-.6-.84-.42-1.51-.98-2.01-1.68-.5-.7-.75-1.48-.75-2.34 0-1.42.57-2.54 1.71-3.36 1.16-.82 2.68-1.38 4.56-1.68l3.93-.57v-.54c0-.78-.18-1.38-.54-1.8-.36-.42-.99-.63-1.89-.63-.66 0-1.19.13-1.59.39-.4.26-.71.6-.93 1.02-.16.26-.39.39-.69.39h-2.85c-.22 0-.39-.06-.51-.18a.606.606 0 01-.15-.48c0-.34.13-.74.39-1.2.26-.46.66-.91 1.2-1.35.54-.46 1.23-.84 2.07-1.14.84-.3 1.87-.45 3.09-.45 1.26 0 2.34.15 3.24.45.9.3 1.62.72 2.16 1.26s.94 1.17 1.2 1.89c.26.7.39 1.46.39 2.28v9.27c0 .22-.07.4-.21.54-.14.14-.32.21-.54.21h-2.94c-.2 0-.37-.07-.51-.21a.731.731 0 01-.21-.54v-1.11c-.26.38-.61.74-1.05 1.08-.44.32-.97.58-1.59.78-.6.2-1.31.3-2.13.3zm1.2-3.12c.66 0 1.25-.14 1.77-.42.52-.28.93-.71 1.23-1.29.3-.58.45-1.31.45-2.19v-.51l-2.79.45c-1.08.18-1.87.45-2.37.81-.5.36-.75.8-.75 1.32 0 .38.11.71.33.99.24.28.55.49.93.63s.78.21 1.2.21zM90.645 28c-.2 0-.37-.07-.51-.21a.731.731 0 01-.21-.54v-14.1c0-.22.07-.4.21-.54.14-.14.31-.21.51-.21h2.94c.22 0 .4.07.54.21.14.14.21.32.21.54v1.17c.52-.64 1.19-1.17 2.01-1.59.82-.42 1.82-.63 3-.63s2.21.27 3.09.81c.9.52 1.6 1.29 2.1 2.31.52 1 .78 2.22.78 3.66v8.37c0 .22-.08.4-.24.54-.14.14-.31.21-.51.21h-3.18c-.22 0-.4-.07-.54-.21a.731.731 0 01-.21-.54v-8.19c0-1.06-.26-1.88-.78-2.46-.5-.6-1.24-.9-2.22-.9-.94 0-1.69.3-2.25.9-.56.58-.84 1.4-.84 2.46v8.19c0 .22-.07.4-.21.54-.14.14-.31.21-.51.21h-3.18zm24.415.3c-1.24 0-2.31-.14-3.21-.42-.88-.3-1.6-.66-2.16-1.08-.54-.42-.95-.84-1.23-1.26-.26-.44-.4-.81-.42-1.11-.02-.22.05-.4.21-.54.16-.14.32-.21.48-.21h2.91c.06 0 .12.01.18.03a.4.4 0 01.18.15c.26.18.53.39.81.63.28.22.6.41.96.57.38.16.85.24 1.41.24.66 0 1.22-.13 1.68-.39.46-.28.69-.67.69-1.17 0-.36-.11-.66-.33-.9-.2-.24-.59-.46-1.17-.66s-1.44-.42-2.58-.66c-1.08-.24-2-.56-2.76-.96-.76-.4-1.33-.9-1.71-1.5-.38-.62-.57-1.36-.57-2.22 0-.78.24-1.53.72-2.25.5-.72 1.23-1.31 2.19-1.77.96-.48 2.16-.72 3.6-.72 1.1 0 2.06.14 2.88.42.84.26 1.54.6 2.1 1.02.56.4.98.82 1.26 1.26.3.42.46.79.48 1.11.02.2-.04.37-.18.51a.66.66 0 01-.48.21h-2.67c-.1 0-.19-.01-.27-.03a.8.8 0 01-.21-.15c-.24-.16-.49-.34-.75-.54a3.45 3.45 0 00-.87-.57c-.34-.16-.78-.24-1.32-.24-.66 0-1.17.15-1.53.45-.34.28-.51.64-.51 1.08 0 .28.09.54.27.78.18.24.55.46 1.11.66s1.41.41 2.55.63c1.36.24 2.44.6 3.24 1.08.8.48 1.37 1.04 1.71 1.68.36.62.54 1.29.54 2.01 0 .94-.28 1.78-.84 2.52-.56.72-1.38 1.29-2.46 1.71-1.06.4-2.37.6-3.93.6zm10.829-.3c-.2 0-.37-.07-.51-.21a.731.731 0 01-.21-.54v-14.1c0-.22.07-.4.21-.54.14-.14.31-.21.51-.21h3c.22 0 .4.07.54.21.14.14.21.32.21.54v14.1c0 .22-.07.4-.21.54-.14.14-.32.21-.54.21h-3zm-.09-18c-.2 0-.37-.07-.51-.21a.731.731 0 01-.21-.54v-2.4c0-.22.07-.4.21-.54.14-.16.31-.24.51-.24h3.15c.22 0 .4.08.54.24.16.14.24.32.24.54v2.4c0 .22-.08.4-.24.54-.14.14-.32.21-.54.21h-3.15zm15.103 18c-1.24 0-2.3-.2-3.18-.6a4.348 4.348 0 01-2.01-1.92c-.44-.86-.66-1.94-.66-3.24v-6.3h-2.34c-.22 0-.4-.07-.54-.21a.731.731 0 01-.21-.54v-2.04c0-.22.07-.4.21-.54.14-.14.32-.21.54-.21h2.34V7.45c0-.22.07-.4.21-.54.16-.14.34-.21.54-.21h2.94c.22 0 .4.07.54.21.14.14.21.32.21.54v4.95h3.75c.2 0 .37.07.51.21.14.14.21.32.21.54v2.04c0 .22-.07.4-.21.54-.14.14-.31.21-.51.21h-3.75v5.94c0 .76.13 1.36.39 1.8.28.42.76.63 1.44.63h2.19c.2 0 .37.07.51.21.14.14.21.31.21.51v2.22c0 .22-.07.4-.21.54-.14.14-.31.21-.51.21h-2.61zm7.027 0c-.22 0-.4-.07-.54-.21a.731.731 0 01-.21-.54V7.75c0-.22.07-.4.21-.54.14-.14.32-.21.54-.21h13.38c.22 0 .4.07.54.21.14.14.21.32.21.54v2.55c0 .22-.07.4-.21.54-.14.14-.32.21-.54.21h-9.45v5.07h8.85c.22 0 .4.07.54.21.14.14.21.32.21.54v2.55c0 .2-.07.37-.21.51-.14.14-.32.21-.54.21h-8.85v7.11c0 .22-.07.4-.21.54-.14.14-.32.21-.54.21h-3.18zm17.951 0c-.22 0-.4-.07-.54-.21a.731.731 0 01-.21-.54V7.45c0-.22.07-.4.21-.54.14-.14.32-.21.54-.21h3c.2 0 .37.07.51.21.14.14.21.32.21.54v19.8c0 .22-.07.4-.21.54-.14.14-.31.21-.51.21h-3zm14.652.3c-1.66 0-3.05-.27-4.17-.81-1.12-.56-1.98-1.35-2.58-2.37-.58-1.02-.9-2.21-.96-3.57-.02-.4-.03-.85-.03-1.35 0-.52.01-.97.03-1.35.06-1.38.4-2.57 1.02-3.57.62-1.02 1.49-1.8 2.61-2.34 1.12-.56 2.48-.84 4.08-.84 1.58 0 2.93.28 4.05.84 1.12.54 1.99 1.32 2.61 2.34.62 1 .96 2.19 1.02 3.57.04.38.06.83.06 1.35 0 .5-.02.95-.06 1.35-.06 1.36-.39 2.55-.99 3.57-.58 1.02-1.43 1.81-2.55 2.37-1.12.54-2.5.81-4.14.81zm0-3.3c.98 0 1.72-.3 2.22-.9.5-.62.77-1.52.81-2.7.02-.3.03-.7.03-1.2s-.01-.9-.03-1.2c-.04-1.16-.31-2.05-.81-2.67-.5-.62-1.24-.93-2.22-.93-.98 0-1.73.31-2.25.93-.5.62-.77 1.51-.81 2.67-.02.3-.03.7-.03 1.2s.01.9.03 1.2c.04 1.18.31 2.08.81 2.7.52.6 1.27.9 2.25.9zm14.728 3c-.28 0-.5-.07-.66-.21-.14-.14-.25-.32-.33-.54l-4.29-13.89c-.04-.1-.06-.2-.06-.3 0-.18.06-.33.18-.45.14-.14.3-.21.48-.21h2.64c.26 0 .46.07.6.21.14.14.23.27.27.39l2.73 9.27 2.91-9.21c.04-.14.13-.28.27-.42.16-.16.38-.24.66-.24h1.71c.28 0 .49.08.63.24.16.14.26.28.3.42l2.91 9.21 2.73-9.27c.02-.12.1-.25.24-.39.16-.14.36-.21.6-.21h2.64c.18 0 .33.07.45.21.14.12.21.27.21.45 0 .1-.01.2-.03.3l-4.32 13.89c-.06.22-.17.4-.33.54-.14.14-.35.21-.63.21h-2.31c-.28 0-.5-.07-.66-.21-.16-.14-.28-.32-.36-.54l-2.91-8.88-2.97 8.88c-.06.22-.17.4-.33.54s-.38.21-.66.21h-2.31z" fill="#fff"/><path fill="#FFB82B" d="M4 7.891L12.472 3l4.892 8.472-8.473 4.891zM8.131 18h10v10h-10zm14-13h10v10h-10zm0 13h10v10h-10z"/></g><defs><filter id="filter0_d_1_4592" x="0" y="3" width="217.08" height="33.3" filterUnits="userSpaceOnUse" color-interpolation-filters="sRGB"><feFlood flood-opacity="0" result="BackgroundImageFix"/><feColorMatrix in="SourceAlpha" values="0 0 0 0 0 0 0 0 0 0 0 0 0 0 0 0 0 0 127 0" result="hardAlpha"/><feOffset dy="4"/><feGaussianBlur stdDeviation="2"/><feComposite in2="hardAlpha" operator="out"/><feColorMatrix values="0 0 0 0 0 0 0 0 0 0 0 0 0 0 0 0 0 0 0.25 0"/><feBlend in2="BackgroundImageFix" result="effect1_dropShadow_1_4592"/><feBlend in="SourceGraphic" in2="effect1_dropShadow_1_4592" result="shape"/></filter></defs></svg>