<svg width="64" height="63" fill="none" xmlns="http://www.w3.org/2000/svg"><circle cx="31.631" cy="31.5" r="31" fill="#111C55" stroke="#273270"/><path d="M24.105 22.14a1.062 1.062 0 00-.39.087 1.006 1.006 0 00-.322.222.934.934 0 00-.205.321.888.888 0 00-.055.372c.134 2.16.768 7.43 3.804 10.716 3.635 3.96 8.369 5.324 13.226 5.123a1.06 1.06 0 00.684-.298.934.934 0 00.284-.656v-3.46a1.385 1.385 0 00-.337-.887 1.553 1.553 0 00-.85-.502l-2.433-.504a1.64 1.64 0 00-.899.074 1.521 1.521 0 00-.7.534l-.537.763a.383.383 0 01-.209.146.408.408 0 01-.26-.012c-1.237-.5-6.167-2.66-6.709-6.304a.34.34 0 01.034-.206.369.369 0 01.15-.154l.977-.558c.267-.155.477-.384.602-.655.124-.27.157-.571.093-.86l-.534-2.318a1.433 1.433 0 00-.554-.82 1.607 1.607 0 00-.983-.304l-3.877.14z" stroke="#F6B426"/></svg>