<svg width="73" height="73" fill="none" xmlns="http://www.w3.org/2000/svg"><circle cx="36.425" cy="36.5" r="36.425" fill="url(#paint0_linear_1_3575)"/><path d="M34.269 25.825c.5 0 .93.178 1.288.536.286.358.43.788.43 1.289 0 .572-.108 1.145-.323 1.718l-5.69 14.709c-.358.716-.716 1.288-1.074 1.718-.43.5-1.11.751-2.04.751h-3.543c-.572 0-1.002-.215-1.288-.644-.358-.43-.465-1.002-.322-1.718l2.362-15.246c.072-.859.358-1.61.859-2.255.5-.572 1.252-.858 2.255-.858h7.086zm17.178 0c.501 0 .93.178 1.289.536.286.358.43.788.43 1.289 0 .572-.108 1.145-.323 1.718l-5.69 14.709c-.358.716-.752 1.288-1.181 1.718-.43.5-1.074.751-1.933.751h-3.543c-.573 0-1.002-.215-1.288-.644-.358-.43-.466-1.002-.323-1.718l2.363-15.246c.071-.859.357-1.61.858-2.255.501-.572 1.217-.858 2.148-.858h7.193z" fill="#091242"/><defs><linearGradient id="paint0_linear_1_3575" x1="-2.065" y1="15.859" x2="89.581" y2="22.367" gradientUnits="userSpaceOnUse"><stop stop-color="#FFB629"/><stop offset=".507" stop-color="#FFDA56"/><stop offset="1" stop-color="#FFD7A6"/></linearGradient></defs></svg>