<svg width="52" height="56" fill="none" xmlns="http://www.w3.org/2000/svg"><path d="M25.66 7.165V1m24.66 34.934c-3.75 13.101-21.115 17.673-24.198 18.393a1.875 1.875 0 01-.925 0C22.115 53.607 4.75 49.035 1 35.934v-8.786a2.055 2.055 0 011.413-1.952l22.605-7.552a2.183 2.183 0 011.284 0l22.605 7.552a2.055 2.055 0 011.413 1.952v8.785zM26.127 47.665c-2.439-.561-16.177-4.13-19.145-14.358" stroke="#1C1F35" stroke-width="2" stroke-linecap="round" stroke-linejoin="round"/><path d="M6.982 9.983v13.153l18.547-6.581 18.546 6.581V9.983a3 3 0 00-3-3H9.982a3 3 0 00-3 3z" fill="#FFD550" stroke="#1C1F35" stroke-width="2"/><path d="M25.66 37.99V17.543m5.254 19.353V28.52M11.769 17.752v-5.983m37.092 8.376V9.375" stroke="#1C1F35" stroke-width="2" stroke-linecap="round" stroke-linejoin="round"/></svg>