<svg width="62" height="62" fill="none" xmlns="http://www.w3.org/2000/svg"><path d="M42.071 28.786V18.82h5.597a7 7 0 016.47 4.33l2.041 4.944a.5.5 0 01-.462.69H42.07z" fill="#FFD550" stroke="#1C1F35" stroke-width="2"/><path d="M4.429 35.428h37.643m3.321 17.715a6.643 6.643 0 100-13.286 6.643 6.643 0 000 13.286z" stroke="#1C1F35" stroke-width="2" stroke-linecap="round" stroke-linejoin="round"/><path d="M16.607 53.143a6.643 6.643 0 100-13.286 6.643 6.643 0 000 13.286z" fill="#FFD550" stroke="#1C1F35" stroke-width="2" stroke-linecap="round" stroke-linejoin="round"/><path d="M38.75 45.393h-15.5m-13.34 0h-3.6c-.498 0-.977-.205-1.33-.568a1.967 1.967 0 01-.551-1.37V16.33c0-.514.198-1.007.551-1.37a1.855 1.855 0 011.33-.567h35.762v25.962" stroke="#1C1F35" stroke-width="2" stroke-linecap="round" stroke-linejoin="round"/><path d="M42.071 28.786h15.5v14.762c0 .49-.204.959-.567 1.305s-.856.54-1.37.54h-3.737M8.857 28.095v-9.273M28.785 31h9.274m-9.273 18.715h3.321" stroke="#1C1F35" stroke-width="2" stroke-linecap="round" stroke-linejoin="round"/></svg>