<svg width="57" height="46" fill="none" xmlns="http://www.w3.org/2000/svg"><path d="M2.334 45h52.38m-21.999 0V2.913c0-.507-.205-.994-.57-1.353A1.962 1.962 0 0030.769 1H7.422c-.516 0-1.01.202-1.376.56-.364.36-.57.846-.57 1.353V45" stroke="#141414" stroke-width="2" stroke-linecap="round" stroke-linejoin="round"/><path d="M32.715 13.572h15.857a3 3 0 013 3v27.38H32.715v-30.38z" fill="#FFD550" stroke="#141414" stroke-width="2" stroke-linecap="round" stroke-linejoin="round"/><path d="M13.857 10.428h7.334M1.286 40.81V26.143m54.477 4.19V15.667M35.857 9.38h7.334M17 26.143h7.333m-10.476 9.429h7.334m18.857 0h4.19m-4.19-9.429h4.19" stroke="#141414" stroke-width="2" stroke-linecap="round" stroke-linejoin="round"/></svg>