<svg width="73" height="73" viewBox="0 0 73 73" fill="none" xmlns="http://www.w3.org/2000/svg">
<circle cx="36.4252" cy="36.5" r="36.4252" fill="url(#paint0_linear_1_3575)"/>
<path d="M34.2687 25.8246C34.7697 25.8246 35.1992 26.0035 35.5571 26.3614C35.8434 26.7193 35.9865 27.1488 35.9865 27.6498C35.9865 28.2224 35.8792 28.795 35.6644 29.3677L29.974 44.0768C29.6162 44.7926 29.2583 45.3652 28.9004 45.7947C28.4709 46.2957 27.7909 46.5462 26.8604 46.5462L23.3173 46.5462C22.7447 46.5462 22.3153 46.3315 22.029 45.902C21.6711 45.4726 21.5637 44.8999 21.7069 44.1842L24.0689 28.9382C24.1405 28.0793 24.4268 27.3277 24.9278 26.6835C25.4289 26.1109 26.1804 25.8246 27.1825 25.8246L34.2687 25.8246ZM51.4472 25.8246C51.9483 25.8246 52.3777 26.0035 52.7356 26.3614C53.0219 26.7193 53.1651 27.1488 53.1651 27.6498C53.1651 28.2224 53.0577 28.795 52.843 29.3677L47.1526 44.0768C46.7947 44.7926 46.401 45.3652 45.9716 45.7947C45.5421 46.2957 44.8979 46.5462 44.039 46.5462H40.4959C39.9233 46.5462 39.4938 46.3315 39.2075 45.902C38.8496 45.4726 38.7423 44.8999 38.8854 44.1842L41.2475 28.9382C41.319 28.0793 41.6054 27.3277 42.1064 26.6835C42.6074 26.1109 43.3232 25.8246 44.2537 25.8246L51.4472 25.8246Z" fill="#091242"/>
<defs>
<linearGradient id="paint0_linear_1_3575" x1="-2.06535" y1="15.8591" x2="89.5811" y2="22.3673" gradientUnits="userSpaceOnUse">
<stop stop-color="#FFB629"/>
<stop offset="0.507189" stop-color="#FFDA56"/>
<stop offset="1" stop-color="#FFD7A6"/>
</linearGradient>
</defs>
</svg>
